PathFileType	4	(X/Y/Z)	53_1_5_p0_0-212.trc
DataRate	CameraRate	NumFrames	NumMarkers	Units	OrigDataRate	OrigDataStartFrame	OrigNumFrames
49.0	49.0	7	27	m	49.0	133	213
Frame#	Time	RHip			RKnee			RAnkle			RBigToe			RSmallToe			RHeel			LHip			LKnee			LAnkle			LBigToe			LSmallToe			LHeel			Neck			Head			Nose			RShoulder			RElbow			RWrist			RThumb			RIndex			RPinky			LShoulder			LElbow			LWrist			LThumb			LIndex			LPinky			
		X1	Y1	Z1	X2	Y2	Z2	X3	Y3	Z3	X4	Y4	Z4	X5	Y5	Z5	X6	Y6	Z6	X7	Y7	Z7	X8	Y8	Z8	X9	Y9	Z9	X10	Y10	Z10	X11	Y11	Z11	X12	Y12	Z12	X13	Y13	Z13	X14	Y14	Z14	X15	Y15	Z15	X16	Y16	Z16	X17	Y17	Z17	X18	Y18	Z18	X19	Y19	Z19	X20	Y20	Z20	X21	Y21	Z21	X22	Y22	Z22	X23	Y23	Z23	X24	Y24	Z24	X25	Y25	Z25	X26	Y26	Z26	X27	Y27	Z27	
133	2.7142857142857144	0.4595282474782539	0.6099831362656403	0.6532289429514802	0.42644397890815283	0.7701576479524531	1.114319919556103	0.386637221958085	0.8838162312046115	1.5164305402750264	0.3168054532946289	0.7330444604916215	1.5623538789338172	0.39136299944766495	0.719603564594165	1.5613711287228687	0.3652527133586478	0.9779409987079486	1.5646177392361433	0.26365025390906427	0.6706184218860053	0.6493779221226567	0.23160613023679122	0.6937120725368443	1.0716762497362302	0.19406929565749942	0.9062319670466452	1.5041756099138226	0.1869204942565714	0.7253987862061871	1.5433599031211374	0.12725678838348828	0.772146833926539	1.5326605228240546	0.1982070938148688	0.9905389502710434	1.571724060744526	0.40791327090394625	0.5113812994108825	0.07677123901603242	0.4080226961821594	0.41893416383994314	-0.15091754568905347	0.38315879207350323	0.3659890940294994	-0.02494289589889649	0.5480484807174754	0.4989600562502249	0.19094948401338424	0.590659171209125	0.5712645154623404	0.4816081889606701	0.42524560913748116	0.4512332491686448	0.6479496445302179	0.2766350022409377	0.47716666098531685	0.6919696881329137	0.28143337996850826	0.4275387617953674	0.7228379946200961	0.3202736153564361	0.41222872706208535	0.7520540836100922	0.25887541087963983	0.5923124264186642	0.14775402117417175	0.1959777246490922	0.647703017080598	0.4162065806860161	0.21418974427045975	0.5334824367916591	0.6421196584891389	0.2675923069505817	0.4714132688641521	0.6669781113641821	0.2622150169207777	0.45233187430096394	0.7239643655406907	0.27852763510831746	0.48328096464024434	0.7410589304673155
134	2.7346938775510203	0.45088939057161764	0.6254345935573796	0.6634810077600675	0.42301573611918225	0.7876029174835733	1.1186030492790313	0.38662500456529575	0.8837414763451429	1.516403353149676	0.31671962000522924	0.7330008301370278	1.5623490693045567	0.3912693220105893	0.7197666326787008	1.5615251809988062	0.3693905707056537	0.9588983045855897	1.557728785348746	0.2582358999733583	0.6669022349971415	0.6500423283102362	0.23087195722459453	0.6912745406678852	1.0671619997818238	0.193913196570476	0.9063920381147079	1.5039455271223823	0.1869364162471952	0.7253309253308563	1.5432667885410938	0.12407189270997544	0.7571581025292402	1.52692263274139	0.19811509330438862	0.9903764142043493	1.5716379228301436	0.4078609408118762	0.5114067755143507	0.07665720079448991	0.40806510748727026	0.4188673560860609	-0.1509852774750365	0.383089043756978	0.3660493109725642	-0.025012723441211998	0.5480557264249264	0.4989067308087322	0.19093927492331692	0.5885473119016958	0.5858722244267294	0.48218743957628557	0.4190247976286359	0.47758025612717797	0.6474628758728003	0.2761901244742435	0.45180462178006214	0.6769438831115301	0.2773486150995823	0.4392772377613507	0.7191199305781991	0.3202331365566365	0.41111844423949984	0.7444386022240012	0.25883923723081476	0.5922148820401033	0.14784604198141194	0.20061621327656995	0.6328869299560236	0.4123144239373122	0.2182533443500252	0.5450066433302142	0.6350445834988157	0.2694106039962754	0.4626336390731952	0.6585804224607112	0.27144368225785076	0.45154886892157087	0.7134703397824111	0.28384897248895985	0.47983789147863126	0.7292373981670062
135	2.7551020408163267	0.4549332958860521	0.6281052107270186	0.6610130860674842	0.4262921059434368	0.7713791677738131	1.110607090139129	0.38660154441304967	0.8850919985553669	1.5126803297585751	0.32018905110956825	0.7471480679375172	1.5631824957503189	0.39135533495784014	0.720292857620271	1.5616842539807414	0.36539709864099984	0.9781938857021765	1.5645906053601157	0.26194983022897395	0.6698816487370866	0.6435238655681658	0.22997885717298408	0.6920549877321952	1.0712022293842751	0.1893475680380466	0.8892949213397124	1.4889751841449916	0.18706478692191036	0.7257662609971668	1.5433102535032823	0.12402351868960314	0.7573136103012859	1.5269381227855718	0.19810236414331872	0.9902813136254496	1.571480846457171	0.40782366600395437	0.5113261026227477	0.07670344128362522	0.4081281450859147	0.4186553296767804	-0.15427203624407274	0.38307905470322956	0.3660036717090911	-0.02505712644318761	0.5479636261239768	0.4990145527314829	0.1909650148865736	0.5787620638784032	0.5739671588660854	0.4849405511164963	0.40996786328748835	0.46554377705873695	0.6494924137771275	0.2728838821018711	0.4503313264263449	0.6739058721231664	0.27365290417174615	0.43793929793283926	0.7154949786090284	0.32323372764328206	0.41992338111732336	0.7385213002759603	0.258817572124568	0.5919884111466281	0.1478913892125585	0.19993399357560557	0.6321117479356139	0.4156244820476895	0.22312174879664567	0.5453728697131857	0.6348965556328804	0.271935032137324	0.44878826206985273	0.6575532399051224	0.2807922492214829	0.4355632787193891	0.7010878882930347	0.28266843680392634	0.47819412895632474	0.7213023772732998
136	2.7755102040816326	0.45045728080541525	0.6255785356835324	0.664448656385287	0.42283570311957613	0.7890320604767768	1.1149578588757716	0.39022693911489736	0.8958732276297591	1.5162409918631572	0.32018215149432133	0.7470641866784143	1.562964078618558	0.3911964723223277	0.7199289154031477	1.5614329765307837	0.36956274646622067	0.9595561992360485	1.5579507472237544	0.2624760884892212	0.6718983149543417	0.6480853429155715	0.23106347599316868	0.6911819202663556	1.0668722547934077	0.18968055256442704	0.8885399862936543	1.4936287917373605	0.18710600223864052	0.725667449115385	1.543155528448732	0.1241217099081617	0.757109312609236	1.526844637676398	0.19810124172970484	0.9904988354575124	1.5716792890190716	0.4076630809590243	0.5096837247868877	0.07310900944826636	0.4080430324141404	0.4188702278782723	-0.15091175080701158	0.3829655826426617	0.36611297494191913	-0.025155453500020523	0.5480133046475268	0.4991970760169098	0.19104779688270482	0.5739372930312374	0.5609045118228009	0.48425115095145194	0.40681468377868896	0.47963985440120394	0.6512500101125974	0.26759204790588415	0.46170782851234904	0.6773459815186047	0.2663562959149554	0.4387103574786325	0.715959071381491	0.31921353435662697	0.4084027832249677	0.7402273390252909	0.25880638578681725	0.5919477640703306	0.14796037405506035	0.19898606858523016	0.632313505743447	0.4261513508407021	0.23488128240575984	0.502115456300448	0.6267967148302389	0.271770424983912	0.431334017409917	0.6549853910715242	0.2830636353820653	0.3851056896383636	0.6971945073737166	0.28654104868760555	0.46397058464238544	0.7190468870888148
137	2.795918367346939	0.45843822784252203	0.6137442346114746	0.6709388878877093	0.4181665996728669	0.7749241866778754	1.1115736716492768	0.39106236670484257	0.8999239009448807	1.5179402904957302	0.3235870899591636	0.7302008239360562	1.556458532207446	0.38592774953059206	0.7179125551785005	1.5605296927836947	0.36995884958465675	0.9799261262071074	1.5609766701446985	0.25888073381694776	0.6688567673942976	0.6579398387185699	0.23025758338756425	0.6923168916299136	1.0712650837399254	0.19014788197866547	0.8923846533471258	1.494116459635116	0.19314253777519882	0.7262623053093431	1.5394756634536717	0.1287908447326068	0.7416009869078513	1.5164339051861209	0.19789168771407084	0.9907690192434356	1.571791111353745	0.41078223611213505	0.49810987531976075	0.077884360958392	0.40806681731607264	0.4186308091360738	-0.15426410965900175	0.38301373553385637	0.3662906278845816	-0.025069621474654	0.5480044848118953	0.4988986632761908	0.19105439883070413	0.5686509820665385	0.5483619042698167	0.4869141124909109	0.40024168190478593	0.4816480124621318	0.651319302802084	0.26582622256566263	0.46444945818771166	0.6833738668926961	0.2695558404964122	0.42616262492835644	0.7176677079570211	0.31953162209329244	0.4068295660741548	0.7435166732569439	0.2586609997336207	0.590203682312169	0.14432292944269756	0.2032477767885244	0.6188483574408048	0.4259713616458894	0.2538796206807747	0.4743965652855317	0.6320656790862649	0.2901511683250362	0.41557705973058057	0.651342139496301	0.30103454160544824	0.38697130577500194	0.7051397390578831	0.29422637519233413	0.44902769777276974	0.7223019009792211
138	2.816326530612245	0.4535499641674999	0.6100952604142102	0.6663158974940113	0.42276854841793754	0.7852203826791628	1.1054081114888952	0.39011811191629303	0.8971148053426495	1.512462127661308	0.3201093511120434	0.7470841613679122	1.562974618237297	0.3951663156939021	0.7335897748641658	1.5668190175473353	0.3700227288540995	0.97963271459653	1.5608495371892304	0.2587201405388698	0.6683742877092143	0.6574187653536759	0.23492199832121843	0.7043919362449272	1.069972791493565	0.18931063288872635	0.8892140816928028	1.4889097107441893	0.19208703353412798	0.7276316364848271	1.5439341876079935	0.12876223360015762	0.741715657221127	1.516548824689055	0.19790758779064968	0.9906394427773278	1.5716719597534627	0.41071612477716435	0.4980459299029066	0.07438065327002186	0.40809153703599715	0.41845744669638923	-0.15755379596698704	0.38298161201996384	0.3662598629474475	-0.025152352427002454	0.5483952297288218	0.5004994259155143	0.19444197186754192	0.5689970952685423	0.5462554805672378	0.4802491068000202	0.40357238988232913	0.46962825612851616	0.653652180405149	0.26917837313407744	0.4629231985650546	0.6920904324917788	0.2746314542816672	0.45153437059975005	0.7205640894639469	0.32165626416764104	0.4172890942704895	0.7415321815456534	0.25872643087005975	0.5915559146455811	0.1479515771759984	0.20314962261616482	0.6179445094421072	0.4259319771434131	0.2544448971129565	0.4757394341364149	0.6360701188547419	0.29832568958846006	0.39525156451773535	0.6618736792792892	0.3089968184983299	0.3876138835723952	0.7089575479929794	0.2992100674153874	0.4372193550731581	0.7253164012641374
139	2.836734693877551	0.45781310376343254	0.6115371767711294	0.6666708795615051	0.41834201370996826	0.771428745540567	1.1020393418162502	0.3910757082605519	0.899861162130253	1.5179018716758594	0.3235898554268246	0.7301259554082311	1.556309513434334	0.39116917356161157	0.7197528703790603	1.5612948166547869	0.37424845518307676	0.9595788098079422	1.5580002097684789	0.26266344949898357	0.6710164696464093	0.6543315850028582	0.234989549734448	0.7043677638128321	1.0700810005508554	0.18929345003997544	0.889092130965146	1.4889383077688256	0.18729975036242635	0.7254534903589382	1.542969629907364	0.12792950766585687	0.7410774784449555	1.524628048208267	0.19795595994119913	0.9906950000620063	1.5716981674302823	0.4107183371318258	0.4979854586447703	0.07443000589827876	0.40809142999837433	0.4184215225017093	-0.15758601764271402	0.38295290042713703	0.3662169250126968	-0.02517041945682732	0.547962665791004	0.49894991314105763	0.19094546601710202	0.5622912520541896	0.5485847719144032	0.48023587150762403	0.41031449549353116	0.46934262172270863	0.6648403716202123	0.2675790764922986	0.47855685018824407	0.7094078146828082	0.2699242844177262	0.45241113213314676	0.7243504893254582	0.3218357733720881	0.4177428328742636	0.7454493807994914	0.25863952463357737	0.5900147070746653	0.1444511514579762	0.21172446439968343	0.6046973766134696	0.4217233081103221	0.2545915651688285	0.4761191350961445	0.632589293655342	0.2907571794458182	0.4107152330255592	0.6746774767224727	0.3011557695631771	0.4000849356339818	0.7130027568061721	0.3027894533077307	0.4265021472674512	0.7243201414741777
